<svg width="273" height="280" viewBox="0 0 273 280" fill="none" xmlns="http://www.w3.org/2000/svg">
<path d="M10.27 276.56L12.68 278.98H21.19L18.72 276.51L10.27 276.56Z" fill="#7AE7FF"/>
<path d="M22.2 276.56L24.62 278.98H33.1199L30.66 276.51L22.2 276.56Z" fill="#7AE7FF"/>
<path d="M34.1401 276.56L36.5501 278.98H45.0601L42.5901 276.51L34.1401 276.56Z" fill="#7AE7FF"/>
<path d="M46.0701 276.56L48.4901 278.98H56.9901L54.5301 276.51L46.0701 276.56Z" fill="#7AE7FF"/>
<path d="M2 11.53V263.4L10.87 272.26H55.4L60.43 277.29H231.56L234.85 274H262.58L272.31 264.27V8.4L265.91 2H164.51L162.41 4.1H83.98L82.32 2.44H11.23L2 11.53Z" fill="#171717"/>
<path d="M163.74 6.33016L166.15 3.91016H174.66L172.2 6.37016L163.74 6.33016Z" fill="#7AE7FF"/>
<path d="M175.67 6.33016L178.09 3.91016H186.6L184.13 6.37016L175.67 6.33016Z" fill="#7AE7FF"/>
<path d="M187.61 6.33016L190.03 3.91016H198.53L196.07 6.37016L187.61 6.33016Z" fill="#7AE7FF"/>
<path d="M199.55 6.33016L201.96 3.91016H210.47L208 6.37016L199.55 6.33016Z" fill="#7AE7FF"/>
<path d="M230.65 272.42L233.06 270H241.57L239.1 272.46L230.65 272.42Z" fill="#7AE7FF"/>
<path d="M242.58 272.42L245 270H253.5L251.04 272.46L242.58 272.42Z" fill="#7AE7FF"/>
<path d="M2 11.53V264.55L10.87 273.41H55.4L60.43 278.44H221.56L224.85 275.15H261.58L271.31 265.42V8.4L264.91 2H164.51L162.41 4.1H83.98L82.32 2.44H11.23L2 11.53Z" stroke="#7AE7FF" stroke-width="2.3247" stroke-miterlimit="10"/>
</svg>
