<svg width="1166" height="14" viewBox="0 0 1166 14" fill="none" xmlns="http://www.w3.org/2000/svg">
<path d="M24.8811 13.0586L37.4454 0.494262H249.999L247.025 3.47538H131.656L126.203 8.92865H92.6471L88.5971 12.9786L24.8811 13.0586Z" fill="#7AE7FF"/>
<path d="M25.5656 12.775L88.4817 12.695L92.4517 8.72506L92.5317 8.64508H92.648H126.087L131.461 3.27179L131.541 3.19181H131.657H246.91L249.324 0.777833H37.5627L25.5656 12.775ZM24.8821 13.0586L37.4464 0.494262H250L247.026 3.46811H131.657L126.204 8.92138H92.648L88.5981 12.9713L24.8821 13.0586Z" fill="#7AE7FF"/>
<path d="M21.1222 13.0586L33.8974 -0.000167847H25.4702L12.6587 12.8114L21.1222 13.0586Z" fill="#7AE7FF"/>
<path d="M21.0058 12.775L33.2284 0.283401H25.5866L13.3204 12.5496L21.0058 12.775ZM21.1222 13.0586L12.6587 12.8114L25.4702 -0.000167847H33.8974L21.1222 13.0586Z" fill="#7AE7FF"/>
<path d="M8.46347 13.0586L21.2387 -0.000167847H12.8115L0 12.8114L8.46347 13.0586Z" fill="#7AE7FF"/>
<path d="M8.34714 12.775L20.5697 0.283401H12.9279L0.661663 12.5496L8.34714 12.775ZM8.46347 13.0586L0 12.8114L12.8115 -0.000167847H21.2387L8.46347 13.0586Z" fill="#7AE7FF"/>
<path d="M1141.12 13.0586L1128.55 0.494242H916L918.974 3.47537H1034.34L1039.8 8.92865H1073.35L1077.4 12.9786L1141.12 13.0586Z" fill="#7AE7FF"/>
<path d="M1140.44 12.775L1077.52 12.695L1073.55 8.72506L1073.47 8.64507H1073.35H1039.91L1034.54 3.27178L1034.46 3.1918H1034.34H919.09L916.676 0.777814H1128.44L1140.44 12.775ZM1141.12 13.0586L1128.55 0.494242H916L918.974 3.4681H1034.34L1039.8 8.92137H1073.35L1077.4 12.9713L1141.12 13.0586Z" fill="#7AE7FF"/>
<path d="M1144.88 13.0586L1132.1 -0.000185966H1140.53L1153.34 12.8114L1144.88 13.0586Z" fill="#7AE7FF"/>
<path d="M1144.99 12.775L1132.77 0.283384H1140.41L1152.68 12.5496L1144.99 12.775ZM1144.88 13.0586L1153.34 12.8114L1140.53 -0.000185966H1132.1L1144.88 13.0586Z" fill="#7AE7FF"/>
<path d="M1157.54 13.0586L1144.76 -0.000185966H1153.19L1166 12.8114L1157.54 13.0586Z" fill="#7AE7FF"/>
<path d="M1157.65 12.775L1145.43 0.283384H1153.07L1165.34 12.5496L1157.65 12.775ZM1157.54 13.0586L1166 12.8114L1153.19 -0.000185966H1144.76L1157.54 13.0586Z" fill="#7AE7FF"/>
<path opacity="0.3" d="M1152.65 0.959961H170V0.0499611H1152.65V0.959961Z" fill="#7AE7FF"/>
</svg>
