<svg width="1166" height="14" viewBox="0 0 1166 14" fill="none" xmlns="http://www.w3.org/2000/svg">
<path d="M24.8811 0L37.4454 12.5643H249.999L247.025 9.58321H131.656L126.203 4.12994H92.6471L88.5971 0.0799813L24.8811 0Z" fill="#7AE7FF"/>
<path d="M25.5656 0.28357L88.4817 0.363551L92.4517 4.33353L92.5317 4.41351H92.648H126.087L131.461 9.7868L131.541 9.86678H131.657H246.91L249.324 12.2808H37.5627L25.5656 0.28357ZM24.8821 0L37.4464 12.5643H250L247.026 9.59048H131.657L126.204 4.13721H92.648L88.5981 0.0872523L24.8821 0Z" fill="#7AE7FF"/>
<path d="M21.1222 0L33.8974 13.0588H25.4702L12.6587 0.247215L21.1222 0Z" fill="#7AE7FF"/>
<path d="M21.0058 0.28357L33.2284 12.7752H25.5866L13.3204 0.508972L21.0058 0.28357ZM21.1222 0L12.6587 0.247215L25.4702 13.0588H33.8974L21.1222 0Z" fill="#7AE7FF"/>
<path d="M8.46347 0L21.2387 13.0588H12.8115L0 0.247215L8.46347 0Z" fill="#7AE7FF"/>
<path d="M8.34714 0.28357L20.5697 12.7752H12.9279L0.661663 0.508972L8.34714 0.28357ZM8.46347 0L0 0.247215L12.8115 13.0588H21.2387L8.46347 0Z" fill="#7AE7FF"/>
<path d="M1141.12 0L1128.55 12.5644H916L918.974 9.58323H1034.34L1039.8 4.12995H1073.35L1077.4 0.0799814L1141.12 0Z" fill="#7AE7FF"/>
<path d="M1140.44 0.28357L1077.52 0.363552L1073.55 4.33354L1073.47 4.41352H1073.35H1039.91L1034.54 9.78681L1034.46 9.8668H1034.34H919.09L916.676 12.2808H1128.44L1140.44 0.28357ZM1141.12 0L1128.55 12.5644H916L918.974 9.5905H1034.34L1039.8 4.13722H1073.35L1077.4 0.0872524L1141.12 0Z" fill="#7AE7FF"/>
<path d="M1144.88 0L1132.1 13.0588H1140.53L1153.34 0.247215L1144.88 0Z" fill="#7AE7FF"/>
<path d="M1144.99 0.28357L1132.77 12.7752H1140.41L1152.68 0.508973L1144.99 0.28357ZM1144.88 0L1153.34 0.247215L1140.53 13.0588H1132.1L1144.88 0Z" fill="#7AE7FF"/>
<path d="M1157.54 0L1144.76 13.0588H1153.19L1166 0.247215L1157.54 0Z" fill="#7AE7FF"/>
<path d="M1157.65 0.28357L1145.43 12.7752H1153.07L1165.34 0.508973L1157.65 0.28357ZM1157.54 0L1166 0.247215L1153.19 13.0588H1144.76L1157.54 0Z" fill="#7AE7FF"/>
<path opacity="0.3" d="M1152.65 12.0986H170V13.0086H1152.65V12.0986Z" fill="#7AE7FF"/>
</svg>
