<svg width="273" height="348" viewBox="0 0 273 348" fill="none" xmlns="http://www.w3.org/2000/svg">
<path d="M10.27 344.56L12.68 346.98H21.19L18.72 344.51L10.27 344.56Z" fill="#7AE7FF"/>
<path d="M22.2 344.56L24.62 346.98H33.1199L30.66 344.51L22.2 344.56Z" fill="#7AE7FF"/>
<path d="M34.1401 344.56L36.5501 346.98H45.0601L42.5901 344.51L34.1401 344.56Z" fill="#7AE7FF"/>
<path d="M46.0701 344.56L48.4901 346.98H56.9901L54.5301 344.51L46.0701 344.56Z" fill="#7AE7FF"/>
<g opacity="0.07">
<path d="M2 13.5084V330.199L10.87 340.899H55.4L60.43 346.973H231.56L234.85 343H262.58L272.31 331.25V9.72864L265.91 2H164.51L162.41 4.53596H83.98L82.32 2.53134H11.23L2 13.5084Z" fill="black"/>
</g>
<path d="M163.74 6.32991L166.15 3.90991H174.66L172.2 6.36991L163.74 6.32991Z" fill="#7AE7FF"/>
<path d="M175.67 6.32991L178.09 3.90991H186.6L184.13 6.36991L175.67 6.32991Z" fill="#7AE7FF"/>
<path d="M187.61 6.32991L190.03 3.90991H198.53L196.07 6.36991L187.61 6.32991Z" fill="#7AE7FF"/>
<path d="M199.55 6.32991L201.96 3.90991H210.47L208 6.36991L199.55 6.32991Z" fill="#7AE7FF"/>
<path d="M230.65 340.42L233.06 338H241.57L239.1 340.46L230.65 340.42Z" fill="#7AE7FF"/>
<path d="M242.58 340.42L245 338H253.5L251.04 340.46L242.58 340.42Z" fill="#7AE7FF"/>
<path d="M2 11.53V332.55L10.87 341.41H55.4L60.43 346.44H221.56L224.85 343.15H261.58L271.31 333.42V8.4L264.91 2H164.51L162.41 4.1H83.98L82.32 2.44H11.23L2 11.53Z" stroke="#7AE7FF" stroke-width="2.3247" stroke-miterlimit="10"/>
</svg>
