<svg width="273" height="396" viewBox="0 0 273 396" fill="none" xmlns="http://www.w3.org/2000/svg">
<path d="M10.27 376.56L12.68 378.98H21.19L18.72 376.51L10.27 376.56Z" fill="#7AE7FF"/>
<path d="M22.2 376.56L24.62 378.98H33.1199L30.66 376.51L22.2 376.56Z" fill="#7AE7FF"/>
<path d="M34.1401 376.56L36.5501 378.98H45.0601L42.5901 376.51L34.1401 376.56Z" fill="#7AE7FF"/>
<path d="M46.0701 376.56L48.4901 378.98H56.9901L54.5301 376.51L46.0701 376.56Z" fill="#7AE7FF"/>
<path d="M2 11.53V380.4L10.87 389.26H55.4L60.43 394.29H231.56L234.85 391H262.58L272.31 381.27V8.4L265.91 2H164.51L162.41 4.1H83.98L82.32 2.44H11.23L2 11.53Z" fill="black"/>
<path d="M8 394.42L10.41 392H18.92L16.46 394.46L8 394.42Z" fill="#7AE7FF"/>
<path d="M19.9302 394.42L22.3502 392H30.8602L28.3902 394.46L19.9302 394.42Z" fill="#7AE7FF"/>
<path d="M31.8701 394.42L34.2901 392H42.7901L40.3301 394.46L31.8701 394.42Z" fill="#7AE7FF"/>
<path d="M43.8101 394.42L46.22 392H54.7301L52.2601 394.46L43.8101 394.42Z" fill="#7AE7FF"/>
<path d="M230.65 388.42L233.06 386H241.57L239.1 388.46L230.65 388.42Z" fill="#7AE7FF"/>
<path d="M242.58 388.42L245 386H253.5L251.04 388.46L242.58 388.42Z" fill="#7AE7FF"/>
<path d="M2 11.53V380.55L10.87 389.41H55.4L60.43 394.44H221.56L224.85 391.15H261.58L271.31 381.42V8.4L264.91 2H164.51L162.41 4.1H83.98L82.32 2.44H11.23L2 11.53Z" stroke="#7AE7FF" stroke-width="2.3247" stroke-miterlimit="10"/>
</svg>
