<svg width="273" height="324" viewBox="0 0 273 324" fill="none" xmlns="http://www.w3.org/2000/svg">
<path d="M10.27 320.56L12.68 322.98H21.19L18.72 320.51L10.27 320.56Z" fill="#7AE7FF"/>
<path d="M22.2 320.56L24.62 322.98H33.1199L30.66 320.51L22.2 320.56Z" fill="#7AE7FF"/>
<path d="M34.1401 320.56L36.5501 322.98H45.0601L42.5901 320.51L34.1401 320.56Z" fill="#7AE7FF"/>
<path d="M46.0701 320.56L48.4901 322.98H56.9901L54.5301 320.51L46.0701 320.56Z" fill="#7AE7FF"/>
<path d="M2 11.53V308.4L10.87 317.26H55.4L60.43 322.29H231.56L234.85 319H262.58L272.31 309.27V8.4L265.91 2H164.51L162.41 4.1H83.98L82.32 2.44H11.23L2 11.53Z" fill="black"/>
<path d="M163.74 6.33003L166.15 3.91003H174.66L172.2 6.37003L163.74 6.33003Z" fill="#7AE7FF"/>
<path d="M175.67 6.33003L178.09 3.91003H186.6L184.13 6.37003L175.67 6.33003Z" fill="#7AE7FF"/>
<path d="M187.61 6.33003L190.03 3.91003H198.53L196.07 6.37003L187.61 6.33003Z" fill="#7AE7FF"/>
<path d="M199.55 6.33003L201.96 3.91003H210.47L208 6.37003L199.55 6.33003Z" fill="#7AE7FF"/>
<path d="M230.65 316.42L233.06 314H241.57L239.1 316.46L230.65 316.42Z" fill="#7AE7FF"/>
<path d="M242.58 316.42L245 314H253.5L251.04 316.46L242.58 316.42Z" fill="#7AE7FF"/>
<path d="M2 11.53V308.55L10.87 317.41H55.4L60.43 322.44H221.56L224.85 319.15H261.58L271.31 309.42V8.4L264.91 2H164.51L162.41 4.1H83.98L82.32 2.44H11.23L2 11.53Z" stroke="#7AE7FF" stroke-width="2.3247" stroke-miterlimit="10"/>
</svg>
