<svg width="56" height="56" viewBox="0 0 56 56" fill="none" xmlns="http://www.w3.org/2000/svg">
<path opacity="0.4" d="M7.2626 26.3594V3.51453H5.15527C4.24921 3.51453 3.51465 4.24909 3.51465 5.15515V26.5207C4.04566 26.4156 4.59396 26.3592 5.15527 26.3592H7.2626V26.3594Z" fill="#7AE7FF"/>
<path opacity="0.4" d="M50.8448 26.1261H47.0288C46.5282 26.1261 46.0575 26.3211 45.7032 26.6753L43.2184 29.16C42.9108 29.4677 42.4935 29.6406 42.0584 29.6406H5.15528C2.27434 29.6406 0 31.9804 0 34.7958V50.8447C0 53.719 2.33242 56 5.15517 56H50.8447C53.719 56 56 53.6676 56 50.8448V31.2813C56 28.4071 53.6676 26.1261 50.8448 26.1261Z" fill="#7AE7FF"/>
<path d="M17.5729 14.8107C17.5729 14.2245 17.8856 13.6829 18.3932 13.3899L29.8156 6.7947C30.3233 6.50158 30.9486 6.50158 31.4563 6.7947L42.8787 13.3898C43.3863 13.6829 43.699 14.2244 43.699 14.8106V24.0657C44.6289 23.2761 45.7955 22.8447 47.0288 22.8447H50.7281V1.64062C50.7281 0.734562 49.9935 0 49.0875 0H12.1843C11.2783 0 10.5437 0.734562 10.5437 1.64062V26.3594H17.5729V14.8107Z" fill="#7AE7FF"/>
<path d="M28.5071 21.4049L30.636 24.5984L32.7648 21.4049L30.636 18.2119L28.5071 21.4049Z" fill="#7AE7FF"/>
<path d="M33.4056 26.3594H40.4177V15.7578L30.636 10.11L20.8542 15.7578V26.3594H27.8664L25.1703 22.3149C24.8029 21.7638 24.8029 21.0458 25.1703 20.4947L29.271 14.3442C29.8911 13.3781 31.381 13.3783 32.0011 14.3442L36.1018 20.4947C36.4692 21.0458 36.4692 21.7638 36.1018 22.3149L33.4056 26.3594Z" fill="#7AE7FF"/>
</svg>
