<svg width="47" height="56" viewBox="0 0 47 56" fill="none" xmlns="http://www.w3.org/2000/svg">
<path opacity="0.4" d="M36.6281 0H10.8906C8.83788 0 7.14361 1.37944 6.61865 3.22901H30.5722C34.5799 3.22901 37.8405 6.48958 37.8405 10.4973V42.0223C39.7189 41.4922 41.0695 39.7624 41.0695 37.7488V4.44138C41.0695 1.95943 39.0539 0 36.6281 0V0Z" fill="#7AE7FF"/>
<path d="M26.1306 28.989V19.2579L17.7032 14.3921L9.27588 19.2579V28.989L17.7032 33.8548L26.1306 28.989ZM16.5271 30.2068L12.9942 24.9071C12.6777 24.4323 12.6777 23.8138 12.9942 23.3389L16.5271 18.04C17.0614 17.2077 18.345 17.2079 18.8792 18.04L22.4121 23.3389C22.7286 23.8138 22.7286 24.4323 22.4121 24.9071L18.8792 30.2068C18.345 31.0392 17.0613 31.039 16.5271 30.2068Z" fill="#7AE7FF"/>
<path d="M19.5376 24.1229L17.7035 21.3721L15.8694 24.1229L17.7035 26.8743L19.5376 24.1229Z" fill="#7AE7FF"/>
<path fill-rule="evenodd" clip-rule="evenodd" d="M4.83469 6.05591H30.5723C32.998 6.05591 35.0137 8.01534 35.0137 10.4973V39.5715C31.6887 41.0419 29.3592 44.3755 29.3468 48.2461H4.83469C2.40891 48.2461 0.393311 46.2865 0.393311 43.8048V10.4973C0.393311 8.0715 2.35303 6.05591 4.83469 6.05591ZM7.15597 17.2177C6.71865 17.4702 6.44924 17.9368 6.44924 18.4418V29.8049C6.44924 30.3099 6.71865 30.7764 7.15597 31.0289L16.9968 36.7109C17.4342 36.9634 17.9729 36.9634 18.4103 36.7109L28.2511 31.0289C28.6885 30.7765 28.9579 30.3099 28.9579 29.8049V18.4418C28.9579 17.9368 28.6885 17.4703 28.2511 17.2177L18.4103 11.5358C17.9729 11.2833 17.4342 11.2833 16.9968 11.5358L7.15597 17.2177ZM7.8627 42.1902H27.5443C29.4163 42.1214 29.4177 39.4328 27.5443 39.3633H7.8627C5.99071 39.4322 5.9893 42.1207 7.8627 42.1902Z" fill="#7AE7FF"/>
<path d="M38.8236 40.4922C34.5481 40.4922 31.0698 43.9819 31.0698 48.2714C31.4596 58.5775 46.1893 58.5746 46.5775 48.2714C46.5774 43.9819 43.0991 40.4922 38.8236 40.4922ZM41.0602 49.3189H39.8677V50.5153C39.8677 51.0938 39.4002 51.5628 38.8236 51.5628C38.247 51.5628 37.7795 51.0938 37.7795 50.5153V49.3189H36.587C36.0104 49.3189 35.543 48.8499 35.543 48.2714C35.543 47.6929 36.0104 47.2239 36.587 47.2239H37.7795V46.0275C37.7795 45.449 38.247 44.98 38.8236 44.98C39.4002 44.98 39.8677 45.449 39.8677 46.0275V47.2239H41.0602C42.4437 47.2753 42.4432 49.2678 41.0602 49.3189Z" fill="#7AE7FF"/>
</svg>
