<svg width="56" height="54" viewBox="0 0 56 54" fill="none" xmlns="http://www.w3.org/2000/svg">
<path opacity="0.4" d="M13.0865 10.3547L35.4111 4.26108L34.2288 1.87141C33.4553 0.318126 31.5687 -0.323311 30.0154 0.450187L10.0303 10.3547H13.0865Z" fill="#7AE7FF"/>
<path opacity="0.7" d="M42.3411 4.43713C42.0645 4.43713 41.7877 4.47487 41.511 4.55033L36.2664 5.98413L20.2493 10.3547H38.4296H46.3533L45.3722 6.75763C44.9949 5.35527 43.7246 4.43713 42.3411 4.43713Z" fill="#7AE7FF"/>
<path d="M49.6297 12.5558H48.9128H47.938H46.9633H39.5239H12.1873H8.60281H5.58428H5.02459H3.15059C2.15699 12.5558 1.2703 13.0149 0.691746 13.738C0.427625 14.0713 0.22639 14.4549 0.113195 14.8763C0.0440202 15.1404 0 15.4171 0 15.7001V16.0774V19.6619V50.7339C0 52.4696 1.40865 53.8782 3.1443 53.8782H49.6234C51.3591 53.8782 52.7677 52.4696 52.7677 50.7339V41.9613H34.1094C31.16 41.9613 28.7641 39.5653 28.7641 36.616V33.7358V32.7611V31.7863V29.6231C28.7641 28.1767 29.3426 26.8624 30.2796 25.9003C31.1097 25.045 32.2228 24.4664 33.4679 24.3218C33.6755 24.2967 33.8893 24.284 34.1031 24.284H50.1516H51.1263H52.1011H52.7677V15.7001C52.774 13.9644 51.3653 12.5558 49.6297 12.5558Z" fill="#7AE7FF"/>
<path d="M54.975 27.2899C54.6605 27.0007 54.2895 26.7806 53.8745 26.6359C53.5537 26.5291 53.2142 26.4662 52.8557 26.4662H52.774H52.7111H51.7363H48.221H34.1094C32.3737 26.4662 30.9651 27.8748 30.9651 29.6105V31.1763V32.151V33.1258V36.6096C30.9651 38.3453 32.3737 39.7539 34.1094 39.7539H52.774H52.8557C53.2142 39.7539 53.5537 39.6911 53.8745 39.5842C54.2895 39.4458 54.6605 39.2194 54.975 38.9301C55.6038 38.3579 56 37.5278 56 36.6097V29.6105C56 28.6923 55.6038 27.8621 54.975 27.2899ZM40.6747 33.7357C40.6747 34.6036 39.9704 35.3079 39.1025 35.3079H38.0586C37.1908 35.3079 36.4865 34.6036 36.4865 33.7357V32.6918C36.4865 32.1888 36.7192 31.7422 37.0902 31.4592C37.3606 31.2517 37.694 31.1197 38.0586 31.1197H38.3228H39.1025C39.9704 31.1197 40.6747 31.824 40.6747 32.6918V33.7357Z" fill="#7AE7FF"/>
</svg>
