<svg width="361" height="193" viewBox="0 0 361 193" fill="none" xmlns="http://www.w3.org/2000/svg">
<path d="M3.41997 10.27L0.999969 12.68L0.999969 21.19L3.46997 18.72L3.41997 10.27Z" fill="#7AE7FF"/>
<path d="M3.41997 22.2L0.999969 24.62L0.999969 33.1199L3.46997 30.66L3.41997 22.2Z" fill="#7AE7FF"/>
<path d="M3.41997 34.1401L0.999969 36.5501L0.999969 45.0601L3.46997 42.5901L3.41997 34.1401Z" fill="#7AE7FF"/>
<path d="M3.41997 46.0701L0.999969 48.4901L0.999969 56.9901L3.46997 54.5301L3.41997 46.0701Z" fill="#7AE7FF"/>
<path d="M347.45 2L16.58 1.99998L7.71997 10.87L7.71997 55.4L2.68997 60.43L2.68997 150.56L5.97998 153.85L5.97997 181.58L15.71 191.31L350.58 191.31L356.98 184.91L356.98 164.51L354.88 162.41L354.88 83.98L356.54 82.32L356.54 11.23L347.45 2Z" fill="black"/>
<path d="M357.65 116.74L360.07 119.15L360.07 127.66L357.61 125.2L357.65 116.74Z" fill="#7AE7FF"/>
<path d="M357.65 128.67L360.07 131.09L360.07 139.6L357.61 137.13L357.65 128.67Z" fill="#7AE7FF"/>
<path d="M357.65 140.61L360.07 143.03L360.07 151.53L357.61 149.07L357.65 140.61Z" fill="#7AE7FF"/>
<path d="M357.65 152.55L360.07 154.96L360.07 163.47L357.61 161L357.65 152.55Z" fill="#7AE7FF"/>
<path d="M7.55998 160.65L9.97998 163.06L9.97998 171.57L7.51998 169.1L7.55998 160.65Z" fill="#7AE7FF"/>
<path d="M7.55998 172.58L9.97998 175L9.97998 183.5L7.51998 181.04L7.55998 172.58Z" fill="#7AE7FF"/>
<path d="M347.45 2L15.43 1.99998L6.56998 10.87L6.56997 55.4L1.53998 60.43L1.53997 141.56L4.82998 144.85L4.82998 181.58L14.56 191.31L350.58 191.31L356.98 184.91L356.98 164.51L354.88 162.41L354.88 83.98L356.54 82.32L356.54 11.23L347.45 2Z" stroke="#7AE7FF" stroke-width="2.3247" stroke-miterlimit="10"/>
</svg>
