<svg width="361" height="263" viewBox="0 0 361 263" fill="none" xmlns="http://www.w3.org/2000/svg">
<path d="M3.41997 10.27L0.999969 12.68L0.999969 21.19L3.46997 18.72L3.41997 10.27Z" fill="#7AE7FF"/>
<path d="M3.41997 22.2L0.999969 24.62L0.999969 33.1199L3.46997 30.66L3.41997 22.2Z" fill="#7AE7FF"/>
<path d="M3.41997 34.1401L0.999969 36.5501L0.999969 45.0601L3.46997 42.5901L3.41997 34.1401Z" fill="#7AE7FF"/>
<path d="M3.41997 46.0701L0.999969 48.4901L0.999969 56.9901L3.46997 54.5301L3.41997 46.0701Z" fill="#7AE7FF"/>
<path d="M347.76 2L16.89 1.99998L8.03003 10.87L8.03003 55.4L3.00003 60.43L3.00003 150.56L6.29003 153.85L6.29003 251.58L16.02 261.31L350.89 261.31L357.29 254.91L357.29 164.51L355.19 162.41L355.19 83.98L356.85 82.32L356.85 11.23L347.76 2Z" fill="black"/>
<path d="M357.65 116.74L360.07 119.15L360.07 127.66L357.61 125.2L357.65 116.74Z" fill="#7AE7FF"/>
<path d="M357.65 128.67L360.07 131.09L360.07 139.6L357.61 137.13L357.65 128.67Z" fill="#7AE7FF"/>
<path d="M357.65 140.61L360.07 143.03L360.07 151.53L357.61 149.07L357.65 140.61Z" fill="#7AE7FF"/>
<path d="M357.65 152.55L360.07 154.96L360.07 163.47L357.61 161L357.65 152.55Z" fill="#7AE7FF"/>
<path d="M7.55998 230L9.97998 232.41L9.97998 240.92L7.51998 238.45L7.55998 230Z" fill="#7AE7FF"/>
<path d="M7.55998 241.93L9.97998 244.35L9.97998 252.85L7.51998 250.39L7.55998 241.93Z" fill="#7AE7FF"/>
<path d="M347.45 2L15.43 1.99998L6.56998 10.87L6.56997 55.4L1.53998 60.43L1.53997 141.56L4.82998 144.85L4.82998 251.58L14.56 261.31L350.58 261.31L356.98 254.91L356.98 164.51L354.88 162.41L354.88 83.98L356.54 82.32L356.54 11.23L347.45 2Z" stroke="#7AE7FF" stroke-width="2.3247" stroke-miterlimit="10"/>
</svg>
