<svg width="22" height="20" viewBox="0 0 22 20" fill="none" xmlns="http://www.w3.org/2000/svg">
<path d="M21 2.64062L17.8125 17.5469C17.5625 18.6094 16.9844 18.8906 16.0781 18.3906L11.25 14.8281L8.90625 17.0781C8.59375 17.3906 8.26562 17.5469 7.92188 17.5469L8.29688 12.625L17.25 4.5625C17.4688 4.34375 17.4688 4.21875 17.25 4.1875C17.0625 4.125 16.8594 4.17188 16.6406 4.32812L5.57812 11.3125L0.796875 9.8125C0.265625 9.65625 0.015625 9.42188 0.046875 9.10938C0.078125 8.79688 0.40625 8.53125 1.03125 8.3125L19.6406 1.09375C20.1094 0.9375 20.4844 1 20.7656 1.28125C21.0469 1.53125 21.125 1.98438 21 2.64062Z" fill="#7AE7FF"/>
</svg>
