<svg width="25" height="18" viewBox="0 0 25 18" fill="none" xmlns="http://www.w3.org/2000/svg">
<path d="M24.0312 5.95312C24.125 5.85938 24.2188 5.84375 24.3125 5.90625C24.4375 5.96875 24.5 6.0625 24.5 6.1875V15.75C24.5 16.375 24.2812 16.9062 23.8438 17.3438C23.4062 17.7812 22.875 18 22.25 18H2.75C2.125 18 1.59375 17.7812 1.15625 17.3438C0.71875 16.9062 0.5 16.375 0.5 15.75V6.1875C0.5 6.0625 0.546875 5.98438 0.640625 5.95312C0.765625 5.89062 0.875 5.89062 0.96875 5.95312C2 6.73438 4.40625 8.5 8.1875 11.25C8.25 11.3125 8.45312 11.4844 8.79688 11.7656C9.17188 12.0469 9.46875 12.2656 9.6875 12.4219C9.90625 12.5469 10.1875 12.7188 10.5312 12.9375C10.875 13.125 11.2031 13.2656 11.5156 13.3594C11.8594 13.4531 12.1875 13.5 12.5 13.5C12.7812 13.5 13.0625 13.4688 13.3438 13.4062C13.625 13.3125 13.8906 13.2188 14.1406 13.125C14.3906 13 14.6562 12.8438 14.9375 12.6562C15.2188 12.4688 15.4531 12.3125 15.6406 12.1875C15.8281 12.0312 16.0469 11.8594 16.2969 11.6719C16.5469 11.4844 16.7188 11.3438 16.8125 11.25C20.5 8.59375 22.9062 6.82812 24.0312 5.95312ZM12.5 12C12.25 12 11.9375 11.9219 11.5625 11.7656C11.2188 11.5781 10.9375 11.4219 10.7188 11.2969C10.5 11.1406 10.1719 10.9062 9.73438 10.5938C9.32812 10.25 9.10938 10.0781 9.07812 10.0781C5.26562 7.29688 2.54688 5.28125 0.921875 4.03125C0.640625 3.8125 0.5 3.51562 0.5 3.14062V2.25C0.5 1.625 0.71875 1.09375 1.15625 0.65625C1.59375 0.21875 2.125 0 2.75 0H22.25C22.875 0 23.4062 0.21875 23.8438 0.65625C24.2812 1.09375 24.5 1.625 24.5 2.25V3.14062C24.5 3.51562 24.3594 3.8125 24.0781 4.03125C22.5469 5.21875 19.8281 7.23438 15.9219 10.0781C15.8906 10.0781 15.6562 10.25 15.2188 10.5938C14.8125 10.9062 14.5 11.1406 14.2812 11.2969C14.0625 11.4219 13.7656 11.5781 13.3906 11.7656C13.0469 11.9219 12.75 12 12.5 12Z" fill="#7AE7FF"/>
</svg>
