<svg xmlns="http://www.w3.org/2000/svg" width="135" height="152" viewBox="0 0 135 152" fill="none" class="mdl-js">

<path d="M126.294 0.289795C115.218 15.754 101.331 26.4736 84.9229 33.6785C79.2388 32.0969 73.3789 31.2768 67.6362 31.3354C61.8935 31.2768 56.0336 32.0969 50.3496 33.6785C33.9419 26.4736 20.054 15.754 8.92022 0.289795C5.52149 8.72483 -7.31165 37.7789 8.15843 78.3725C8.15843 78.3725 3.17754 99.5772 12.3189 117.795C12.3189 117.795 25.5037 111.82 35.9343 120.196C46.8922 129.1 43.3763 137.593 51.1114 144.974C57.733 151.71 67.6362 151.71 67.6362 151.71C67.6362 151.71 77.5394 151.71 84.1611 144.974C91.8961 137.652 88.3802 129.1 99.3382 120.196C109.769 111.82 122.953 117.795 122.953 117.795C132.036 99.5772 127.114 78.3725 127.114 78.3725C142.525 37.7789 129.634 8.66626 126.294 0.289795ZM16.4209 72.7491C7.98264 55.469 5.69729 31.7455 11.0298 13.0009C18.0616 30.7497 27.6132 38.7747 38.9814 47.2097C34.1177 57.1677 25.0935 66.6571 16.4209 72.7491ZM40.6222 103.209C34.0005 100.28 32.5941 94.4811 32.5941 94.4811C41.6769 88.7991 54.9203 93.1338 55.3891 106.606C48.3572 102.389 46.0719 105.552 40.6222 103.209ZM67.6362 151.008C62.8897 151.008 59.0222 147.61 59.0222 143.451C59.0222 139.292 62.8897 135.895 67.6362 135.895C72.3827 135.895 76.2502 139.292 76.2502 143.451C76.1916 147.61 72.3827 151.008 67.6362 151.008ZM94.5917 103.209C89.2006 105.552 86.8566 102.389 79.8834 106.606C80.2935 93.1338 93.5955 88.7991 102.678 94.4811C102.62 94.4811 101.213 100.28 94.5917 103.209ZM118.793 72.7491C110.179 66.6571 101.096 57.1677 96.2324 47.2097C107.601 38.7747 117.152 30.8082 124.184 13.0009C129.575 31.7455 127.231 55.469 118.793 72.7491Z" fill="#F7F7F7"/>
</svg>