<?xml version="1.0" standalone="no"?>
<!DOCTYPE svg PUBLIC "-//W3C//DTD SVG 20010904//EN"
 "http://www.w3.org/TR/2001/REC-SVG-20010904/DTD/svg10.dtd">
<svg version="1.0" xmlns="http://www.w3.org/2000/svg"
 width="1080.000000pt" height="1080.000000pt" viewBox="0 0 1080.000000 1080.000000"
 preserveAspectRatio="xMidYMid meet">
<metadata>
Created by potrace 1.14, written by Peter Selinger 2001-2017
</metadata>
<g transform="translate(0.000000,1080.000000) scale(0.100000,-0.100000)"
fill="#000000" stroke="none">
<path d="M0 5400 l0 -5400 5400 0 5400 0 0 5400 0 5400 -5400 0 -5400 0 0
-5400z m8490 5210 c0 -5 -4 -10 -10 -10 -5 0 -10 5 -10 10 0 6 5 10 10 10 6 0
10 -4 10 -10z m344 -59 c7 -11 -14 -20 -31 -13 -7 2 -10 8 -7 13 7 12 31 12
38 0z m-1154 -137 c0 -14 -21 -19 -33 -7 -9 9 13 34 24 27 5 -3 9 -12 9 -20z
m-270 -204 c0 -5 -7 -10 -16 -10 -8 0 -12 5 -9 10 3 6 10 10 16 10 5 0 9 -4 9
-10z m955 -138 c-8 -8 -25 10 -19 20 4 6 9 5 15 -3 4 -7 6 -15 4 -17z m469
-103 c-3 -5 -10 -7 -15 -3 -5 3 -7 10 -3 15 3 5 10 7 15 3 5 -3 7 -10 3 -15z
m-117 -241 c-3 -8 -6 -5 -6 6 -1 11 2 17 5 13 3 -3 4 -12 1 -19z m-47 -138 c0
-5 -4 -10 -10 -10 -5 0 -10 5 -10 10 0 6 5 10 10 10 6 0 10 -4 10 -10z m1935
-110 c3 -5 1 -10 -4 -10 -6 0 -11 5 -11 10 0 6 2 10 4 10 3 0 8 -4 11 -10z
m-3350 -430 c3 -5 1 -10 -4 -10 -6 0 -11 5 -11 10 0 6 2 10 4 10 3 0 8 -4 11
-10z m2151 -21 c7 -12 -15 -31 -28 -23 -4 3 -8 12 -8 20 0 17 26 19 36 3z m84
-19 c0 -5 -4 -10 -10 -10 -5 0 -10 5 -10 10 0 6 5 10 10 10 6 0 10 -4 10 -10z
m1185 -30 c10 -11 24 -20 32 -20 7 0 13 -4 13 -10 0 -5 7 -10 15 -10 8 0 15
-4 15 -10 0 -5 -9 -10 -20 -10 -12 0 -35 -7 -52 -16 -28 -15 -31 -14 -45 6
-10 13 -21 19 -33 15 -13 -4 -20 1 -25 16 -7 23 6 36 50 51 30 9 31 9 50 -12z
m-2825 -20 c0 -5 -5 -10 -11 -10 -5 0 -7 5 -4 10 3 6 8 10 11 10 2 0 4 -4 4
-10z m-180 -4 c0 -3 -4 -8 -10 -11 -5 -3 -10 -1 -10 4 0 6 5 11 10 11 6 0 10
-2 10 -4z m2890 -22 c0 -9 -5 -14 -12 -12 -18 6 -21 28 -4 28 9 0 16 -7 16
-16z m-3330 -14 c0 -5 -4 -10 -10 -10 -5 0 -10 5 -10 10 0 6 5 10 10 10 6 0
10 -4 10 -10z m3490 -85 c0 -8 -4 -15 -9 -15 -13 0 -22 16 -14 24 11 11 23 6
23 -9z m-3120 -5 c0 -5 -2 -10 -4 -10 -3 0 -8 5 -11 10 -3 6 -1 10 4 10 6 0
11 -4 11 -10z m2465 -9 c3 -5 1 -12 -5 -16 -5 -3 -10 1 -10 9 0 18 6 21 15 7z
m-2425 -16 c10 -13 9 -15 -9 -15 -12 0 -21 6 -21 15 0 8 4 15 9 15 5 0 14 -7
21 -15z m3020 -55 c0 -14 -15 -19 -29 -10 -17 10 -5 31 14 23 8 -3 15 -9 15
-13z m75 -20 c-3 -5 -13 -6 -21 -3 -12 4 -13 8 -3 14 15 9 32 2 24 -11z
m-1137 -8 c2 -7 -6 -12 -17 -12 -21 0 -27 11 -14 24 9 9 26 2 31 -12z m-1788
-21 c4 -8 13 -11 19 -7 7 4 9 1 5 -8 -3 -8 1 -24 9 -36 12 -18 15 -18 20 -5 8
19 47 20 47 0 0 -9 6 -12 17 -8 14 5 15 1 10 -35 -4 -37 -3 -42 15 -42 12 0
27 8 34 18 12 15 13 14 14 -11 0 -26 2 -27 23 -16 12 7 26 18 30 25 14 24 27
15 27 -17 0 -28 2 -31 25 -25 38 10 47 -1 21 -27 -37 -37 -101 -63 -112 -45
-4 6 -39 25 -79 43 -41 19 -81 45 -91 60 -11 14 -29 39 -41 55 -24 30 -29 50
-13 50 6 0 10 -7 10 -15 0 -8 5 -15 10 -15 12 0 13 10 1 29 -5 8 -18 12 -29 9
-15 -4 -19 -1 -18 16 1 25 32 29 46 7z m1726 -6 c3 -8 3 -19 0 -24 -10 -16
-36 -1 -36 20 0 22 28 26 36 4z m-1796 -95 c0 -5 -4 -10 -10 -10 -5 0 -10 5
-10 10 0 6 5 10 10 10 6 0 10 -4 10 -10z m-440 -4 c0 -3 -4 -8 -10 -11 -5 -3
-10 -1 -10 4 0 6 5 11 10 11 6 0 10 -2 10 -4z m-945 -104 c0 -46 -19 -44 -23
2 -3 28 0 37 10 34 7 -3 13 -19 13 -36z m3139 10 c7 -12 -4 -52 -14 -52 -12 0
-23 38 -15 50 7 12 22 13 29 2z m-1254 -21 c0 -6 17 -8 38 -5 20 2 31 2 25 -2
-27 -12 -12 -25 21 -19 41 8 76 -1 76 -20 0 -7 7 -15 15 -19 8 -3 15 -12 15
-20 0 -12 7 -14 30 -9 23 4 30 2 30 -10 0 -9 -5 -19 -11 -22 -6 -4 -8 -13 -5
-21 3 -8 -1 -14 -11 -14 -9 0 -21 -7 -28 -17 -8 -11 -18 -14 -31 -8 -12 5 -15
9 -7 12 10 4 9 8 -1 19 -18 18 -32 18 -39 0 -3 -7 -14 -15 -25 -18 -15 -4 -18
-1 -14 18 2 14 0 24 -7 24 -21 0 -111 -96 -111 -118 0 -28 33 -46 59 -32 25
13 61 13 61 0 0 -5 -7 -10 -16 -10 -19 0 -104 -85 -104 -104 0 -18 -48 -61
-57 -51 -5 4 -2 10 5 12 19 7 14 17 -17 36 -29 17 -29 18 -14 48 14 27 14 33
1 46 -13 13 -17 10 -32 -22 -19 -39 -41 -54 -57 -38 -11 11 25 53 61 73 15 8
18 17 13 48 -3 20 -14 49 -24 64 -30 43 -36 86 -13 94 32 12 54 36 54 60 0 20
6 23 48 27 26 2 53 4 60 5 6 1 12 -2 12 -7z m208 -32 c-2 -6 -8 -10 -13 -10
-5 0 -11 4 -13 10 -2 6 4 11 13 11 9 0 15 -5 13 -11z m-768 -23 c0 -3 -4 -8
-10 -11 -5 -3 -10 -1 -10 4 0 6 5 11 10 11 6 0 10 -2 10 -4z m800 -16 c0 -5
-5 -10 -11 -10 -5 0 -7 5 -4 10 3 6 8 10 11 10 2 0 4 -4 4 -10z m160 0 c0 -5
-5 -10 -11 -10 -5 0 -7 5 -4 10 3 6 8 10 11 10 2 0 4 -4 4 -10z m-1915 -38 c0
-18 -20 -15 -23 4 -3 10 1 15 10 12 7 -3 13 -10 13 -16z m2525 -77 c0 -21 -5
-25 -27 -25 -26 1 -27 2 -9 15 10 7 15 18 11 24 -3 6 1 11 9 11 10 0 16 -9 16
-25z m-2082 -26 c2 -11 -6 -18 -21 -21 -20 -4 -23 -1 -19 19 5 27 35 28 40 2z
m490 0 c-2 -6 -8 -10 -13 -10 -5 0 -11 4 -13 10 -2 6 4 11 13 11 9 0 15 -5 13
-11z m2952 -5 c0 -9 -5 -14 -12 -12 -18 6 -21 28 -4 28 9 0 16 -7 16 -16z
m-550 -14 c0 -5 -7 -10 -16 -10 -8 0 -12 5 -9 10 3 6 10 10 16 10 5 0 9 -4 9
-10z m-2848 -74 c15 -3 30 -1 33 5 9 14 20 11 49 -16 15 -14 32 -25 37 -25 6
0 9 -21 7 -47 -3 -48 -3 -48 27 -45 27 2 28 1 11 -10 -44 -30 -76 -61 -76 -74
0 -9 -5 -12 -10 -9 -6 4 -8 15 -5 25 7 21 -11 34 -64 45 -19 4 -41 14 -49 22
-8 8 -17 11 -21 8 -3 -4 2 -12 11 -19 10 -7 20 -34 24 -64 6 -45 9 -52 28 -51
11 1 110 1 219 1 l197 -2 0 -580 c0 -575 0 -580 20 -580 25 0 90 -41 90 -56 0
-6 -11 -23 -25 -39 -21 -22 -24 -30 -13 -42 10 -12 9 -18 -7 -29 -10 -8 -26
-14 -36 -14 -9 0 -20 -7 -23 -16 -3 -9 -6 -751 -6 -1650 l0 -1634 -480 0 -480
0 0 300 0 300 -1055 2 -1056 3 464 485 464 484 592 -3 591 -3 0 842 0 842
-1621 -1626 -1621 -1626 -519 0 -519 0 0 213 1 212 856 860 c471 473 1352
1357 1958 1965 694 695 1101 1110 1098 1119 -4 9 -1 11 6 6 8 -4 50 32 113 96
56 56 94 100 85 96 -11 -4 -14 -2 -10 9 3 8 12 13 19 10 7 -3 26 8 41 24 15
17 38 30 50 30 31 0 66 37 60 61 -3 13 0 19 11 19 8 0 23 7 32 15 14 13 19 12
45 -1 16 -8 34 -13 42 -10 7 3 15 1 18 -4 9 -15 65 -9 65 7 0 8 5 11 10 8 6
-4 8 -10 5 -15 -3 -5 10 -6 30 -3 30 5 34 3 29 -11 -5 -12 -2 -15 9 -10 11 4
21 -4 32 -25 14 -27 21 -31 57 -31 l42 0 -22 20 c-21 20 -21 23 -7 50 8 16 15
38 15 50 0 11 6 20 14 20 9 0 12 7 9 20 -3 11 0 20 6 20 6 0 11 -7 11 -15 0
-8 3 -15 8 -15 6 0 7 28 3 75 -1 6 -6 3 -12 -5 -9 -12 -10 -12 -5 3 3 10 6 26
6 34 0 12 7 14 33 9 17 -3 44 -8 59 -10z m2065 5 c7 7 12 1 16 -20 4 -20 13
-31 24 -32 16 -1 16 -2 1 -6 -9 -2 -21 -17 -27 -34 -5 -16 -14 -29 -19 -29 -6
0 -12 -10 -16 -22 -6 -24 -73 -84 -83 -74 -3 3 -1 18 4 33 7 18 7 36 0 50 -8
19 -6 26 17 44 14 11 26 27 26 35 0 8 6 17 14 20 9 3 12 13 8 27 -5 19 -3 20
10 10 10 -9 18 -9 25 -2z m-2420 -27 c-3 -3 -12 -4 -19 -1 -8 3 -5 6 6 6 11 1
17 -2 13 -5z m-26 -37 c-1 -12 -15 -9 -19 4 -3 6 1 10 8 8 6 -3 11 -8 11 -12z
m1699 -12 c0 -8 -4 -15 -10 -15 -5 0 -10 7 -10 15 0 8 5 15 10 15 6 0 10 -7
10 -15z m-1660 -35 c0 -5 -4 -10 -9 -10 -6 0 -13 5 -16 10 -3 6 1 10 9 10 9 0
16 -4 16 -10z m-40 -30 c0 -5 -5 -10 -11 -10 -5 0 -7 5 -4 10 3 6 8 10 11 10
2 0 4 -4 4 -10z m3592 -15 c0 -5 -5 -11 -11 -13 -6 -2 -11 4 -11 13 0 9 5 15
11 13 6 -2 11 -8 11 -13z m-3048 -30 c-4 -8 -10 -13 -14 -10 -5 3 -11 1 -15
-5 -3 -5 -11 -10 -18 -10 -6 0 0 11 13 24 26 25 43 25 34 1z m136 -5 c0 -5 -4
-10 -9 -10 -6 0 -13 5 -16 10 -3 6 1 10 9 10 9 0 16 -4 16 -10z m-945 -80 c-3
-5 -12 -7 -20 -3 -21 7 -19 13 6 13 11 0 18 -4 14 -10z m1295 -4 c0 -21 -21
-31 -31 -15 -14 22 -11 29 11 29 11 0 20 -6 20 -14z m-1320 -20 c0 -3 -4 -8
-10 -11 -5 -3 -10 -1 -10 4 0 6 5 11 10 11 6 0 10 -2 10 -4z m2590 -37 c0 -5
-4 -9 -10 -9 -5 0 -10 7 -10 16 0 8 5 12 10 9 6 -3 10 -10 10 -16z m-2815 1
c3 -5 -1 -10 -10 -10 -9 0 -13 5 -10 10 3 6 8 10 10 10 2 0 7 -4 10 -10z
m-365 -64 c0 -3 -4 -8 -10 -11 -5 -3 -10 -1 -10 4 0 6 5 11 10 11 6 0 10 -2
10 -4z m3130 -36 c0 -10 4 -21 9 -25 6 -3 6 -18 0 -38 -8 -27 -6 -34 11 -46
27 -18 26 -41 -2 -38 -21 2 -23 -2 -23 -50 0 -29 3 -53 7 -53 5 0 8 6 9 13 0
6 5 -1 10 -17 10 -35 10 -35 -22 -38 -22 -3 -24 0 -22 35 1 20 -2 37 -7 37 -6
0 -10 -6 -10 -12 -1 -7 -11 -1 -23 14 -21 25 -25 26 -70 17 -27 -5 -53 -11
-58 -14 -5 -4 -9 2 -9 12 0 14 -2 15 -9 4 -5 -7 -14 -12 -21 -9 -7 2 2 18 22
41 19 20 37 34 41 31 3 -3 20 4 36 16 30 21 30 22 16 50 -20 39 -10 63 24 57
19 -4 33 1 50 19 25 26 41 24 41 -6z m920 -130 c0 -5 -2 -10 -4 -10 -3 0 -8 5
-11 10 -3 6 -1 10 4 10 6 0 11 -4 11 -10z m-560 -20 c0 -5 -5 -10 -11 -10 -5
0 -7 5 -4 10 3 6 8 10 11 10 2 0 4 -4 4 -10z m230 -40 c0 -5 -4 -10 -10 -10
-5 0 -10 5 -10 10 0 6 5 10 10 10 6 0 10 -4 10 -10z m190 -96 c0 -8 -5 -12
-10 -9 -6 4 -8 11 -5 16 9 14 15 11 15 -7z m-4470 -134 c0 -5 -4 -10 -10 -10
-5 0 -10 5 -10 10 0 6 5 10 10 10 6 0 10 -4 10 -10z m5260 -30 c0 -5 -2 -10
-4 -10 -3 0 -8 5 -11 10 -3 6 -1 10 4 10 6 0 11 -4 11 -10z m-50 -50 c0 -5 -4
-10 -10 -10 -5 0 -10 5 -10 10 0 6 5 10 10 10 6 0 10 -4 10 -10z m-440 -60 c0
-5 -4 -10 -10 -10 -5 0 -10 5 -10 10 0 6 5 10 10 10 6 0 10 -4 10 -10z m-1160
-140 c0 -5 -5 -10 -11 -10 -5 0 -7 5 -4 10 3 6 8 10 11 10 2 0 4 -4 4 -10z
m-232 -72 c14 -14 -2 -48 -22 -48 -20 0 -39 27 -32 45 6 18 37 20 54 3z m1122
-213 c0 -8 -4 -15 -9 -15 -13 0 -22 16 -14 24 11 11 23 6 23 -9z m-1983 -697
c8 -7 9 -17 1 -39 l-10 -29 -27 23 c-26 21 -27 23 -12 43 15 21 22 21 48 2z"/>
<path d="M8030 8525 c-10 -12 -10 -15 4 -15 9 0 16 7 16 15 0 8 -2 15 -4 15
-2 0 -9 -7 -16 -15z"/>
<path d="M8346 8431 c-9 -13 3 -39 21 -45 11 -5 13 -2 9 10 -3 8 -6 22 -6 30
0 16 -16 19 -24 5z"/>
<path d="M8400 8370 c0 -5 5 -10 10 -10 6 0 10 5 10 10 0 6 -4 10 -10 10 -5 0
-10 -4 -10 -10z"/>
<path d="M7230 8074 c0 -8 5 -12 10 -9 6 4 8 11 5 16 -9 14 -15 11 -15 -7z"/>
</g>
</svg>
