<svg width="757" height="278" fill="none" xmlns="http://www.w3.org/2000/svg"><path d="m7.263 22.156-5.078 3.637-.047 12.845 5.184-3.727-.06-12.755ZM7.246 40.16l-5.078 3.652-.046 12.83 5.183-3.712-.059-12.77ZM7.23 58.18l-5.08 3.635-.045 12.845 5.183-3.727-.059-12.755Zm-.016 18.003-5.078 3.652-.046 12.83 5.183-3.712-.06-12.77Z" fill="#7AE7FF"/><path d="M730.412 3.156 32.795 3.008 14.053 19.651l-.272 71.202-10.64 9.437-.383 84.039 6.914 6.175-.235 68.248 20.448 18.265 706.051.149 13.538-12.008.142-39.014-4.413-3.942.346-77.559 3.511-3.114.454-121.047-19.102-17.326Z" fill="#171717"/><path d="m751.038 150.657 5.053 3.586-.046 12.659-5.136-3.66.129-12.585Zm-.016 17.742 5.052 3.601-.045 12.66-5.136-3.676.129-12.585Zm-.016 17.758 5.052 3.601-.045 12.645-5.136-3.661.129-12.585Zm-.016 17.758 5.053 3.586-.046 12.659-5.136-3.676.129-12.569ZM12.01 221.657l5.05 3.778-.049 13.336-5.132-3.872.131-13.242Zm-.017 18.692 5.05 3.794-.049 13.321-5.133-3.857.132-13.258Z" fill="#7AE7FF"/><path d="m731.396 2.323-700.512-.31L12.16 18.641l-.143 72.158-10.63 9.429-.211 81.073 6.93 6.173-.128 70.617 20.496 18.258 708.952.314 13.525-11.998.071-39.989-4.423-3.941.203-76.008 3.508-3.112.233-121.972-19.147-17.32Z" stroke="#7AE7FF" stroke-width="2.325" stroke-miterlimit="10"/></svg>