<svg width="332" height="457" viewBox="0 0 332 457" fill="none" xmlns="http://www.w3.org/2000/svg">
<path d="M10.0415 453.253L12.464 456H21.0181L18.5353 453.197L10.0415 453.253Z" fill="#7AE7FF"/>
<path d="M22.033 453.253L24.4655 456H33.0095L30.5368 453.197L22.033 453.253Z" fill="#7AE7FF"/>
<path d="M34.0352 453.253L36.4576 456H45.0117L42.5289 453.197L34.0352 453.253Z" fill="#7AE7FF"/>
<path d="M46.0266 453.253L48.4591 456H57.0032L54.5304 453.197L46.0266 453.253Z" fill="#7AE7FF"/>
<path d="M2 12.8171V438.577L10.9159 448.633H55.6766L60.7326 454.343H278.987L282.294 450.608H319.214L328.995 439.564V9.26436L322.562 2H165.352L163.241 4.38362H84.4046L82.736 2.49943H11.2778L2 12.8171Z" fill="black"/>
<path d="M275.148 6.91505L277.57 4.16821H286.124L283.652 6.96045L275.148 6.91505Z" fill="#7AE7FF"/>
<path d="M287.14 6.91505L289.572 4.16821H298.126L295.643 6.96045L287.14 6.91505Z" fill="#7AE7FF"/>
<path d="M299.141 6.91505L301.574 4.16821H310.118L307.645 6.96045L299.141 6.91505Z" fill="#7AE7FF"/>
<path d="M311.143 6.91505L313.566 4.16821H322.12L319.637 6.96045L311.143 6.91505Z" fill="#7AE7FF"/>
<path d="M257.969 451.959L260.391 449.212H268.945L266.463 452.005L257.969 451.959Z" fill="#7AE7FF"/>
<path d="M269.961 451.959L272.393 449.212H280.937L278.464 452.005L269.961 451.959Z" fill="#7AE7FF"/>
<path d="M2 12.8171V439.122L10.9159 449.178H55.6766L60.7326 454.888H279.992L283.299 451.153H320.22L330 440.109V9.26436L323.567 2H165.352L163.241 4.38362H84.4046L82.736 2.49943H11.2778L2 12.8171Z" stroke="#7AE7FF" stroke-width="2.3247" stroke-miterlimit="10"/>
</svg>
