<svg width="757" height="532" fill="none" xmlns="http://www.w3.org/2000/svg">
<path d="m7.426 22-5.074 4.127-.053 14.576 5.18-4.23L7.426 22Zm-.018 20.43-5.075 4.144-.052 14.558 5.18-4.212-.053-14.49Zm-.019 20.447-5.075 4.127-.052 14.575 5.18-4.23-.053-14.472Zm-.018 20.429L2.296 87.45l-.052 14.559 5.18-4.213-.053-14.49Z" fill="#7AE7FF"/>
<path d="M730.586 2.155 33.617 2.008 14.893 18.635l-.305 83.494-10.63 9.43-.619 168.994 6.908 6.171-.662 222.888 20.429 18.248 705.394.149 13.525-11.997.612-209.145-4.409-3.938.538-147.057 3.508-3.112.488-133.295-19.084-17.31Z" fill="#171717"/>
<path d="m750.934 213.604 5.039 4.516-.057 15.944-5.122-4.61.14-15.85Zm-.02 22.347 5.039 4.535-.058 15.944-5.122-4.629.141-15.85Zm-.021 22.366 5.039 4.535-.057 15.925-5.122-4.61.14-15.85Zm-.019 22.365 5.039 4.517-.058 15.943-5.121-4.629.14-15.831ZM13.195 468l5.038 4.516-.057 15.943-5.122-4.628.14-15.831Zm-.021 22.347 5.039 4.535-.058 15.924-5.121-4.61.14-15.849Z" fill="#7AE7FF"/>
<path d="m731.558 2.323-700.294-.31-18.718 16.618-.153 83.466-10.626 9.424-.279 152.069 6.928 6.17-.286 241.685 20.489 18.247 708.73.314 13.521-11.99.231-211.077-4.422-3.938.269-147.009 3.507-3.11.243-133.25-19.14-17.31Z" stroke="#7AE7FF" stroke-width="2.325" stroke-miterlimit="10"/>
</svg>