<svg width="332" height="403" viewBox="0 0 332 403" fill="none" xmlns="http://www.w3.org/2000/svg">
<path d="M10.0415 399.56L12.464 401.98H21.0181L18.5353 399.51L10.0415 399.56Z" fill="#7AE7FF"/>
<path d="M22.033 399.56L24.4655 401.98H33.0095L30.5368 399.51L22.033 399.56Z" fill="#7AE7FF"/>
<path d="M34.0352 399.56L36.4576 401.98H45.0117L42.5289 399.51L34.0352 399.56Z" fill="#7AE7FF"/>
<path d="M46.0266 399.56L48.4591 401.98H57.0032L54.5304 399.51L46.0266 399.56Z" fill="#7AE7FF"/>
<path d="M2 11.53V386.63L10.9159 395.49H55.6766L60.7326 400.52H278.987L282.294 397.23H319.214L328.995 387.5V8.4L322.562 2H165.352L163.241 4.1H84.4046L82.736 2.44H11.2778L2 11.53Z" fill="black"/>
<path d="M275.148 6.33016L277.57 3.91016H286.124L283.652 6.37016L275.148 6.33016Z" fill="#7AE7FF"/>
<path d="M287.14 6.33016L289.572 3.91016H298.126L295.643 6.37016L287.14 6.33016Z" fill="#7AE7FF"/>
<path d="M299.141 6.33016L301.574 3.91016H310.118L307.645 6.37016L299.141 6.33016Z" fill="#7AE7FF"/>
<path d="M311.143 6.33016L313.566 3.91016H322.12L319.637 6.37016L311.143 6.33016Z" fill="#7AE7FF"/>
<path d="M257.969 398.42L260.391 396H268.945L266.463 398.46L257.969 398.42Z" fill="#7AE7FF"/>
<path d="M269.961 398.42L272.393 396H280.937L278.464 398.46L269.961 398.42Z" fill="#7AE7FF"/>
<path d="M2 11.53V387.11L10.9159 395.97H55.6766L60.7326 401H279.992L283.299 397.71H320.22L330 387.98V8.4L323.567 2H165.352L163.241 4.1H84.4046L82.736 2.44H11.2778L2 11.53Z" stroke="#7AE7FF" stroke-width="2.3247" stroke-miterlimit="10"/>
</svg>
