<svg width="758" height="278" viewBox="0 0 758 278" fill="none" xmlns="http://www.w3.org/2000/svg">
<path d="M8.26095 21.6722L3.18288 25.3089L3.13665 38.1541L8.3197 34.4269L8.26095 21.6722Z" fill="#7AE7FF"/>
<path d="M8.24435 39.6759L3.1661 43.3277L3.11993 56.158L8.30304 52.4459L8.24435 39.6759Z" fill="#7AE7FF"/>
<path d="M8.22763 57.6952L3.14955 61.3319L3.10332 74.1773L8.28637 70.4501L8.22763 57.6952Z" fill="#7AE7FF"/>
<path d="M8.21212 75.6991L3.13387 79.3508L3.0877 92.181L8.27081 88.4689L8.21212 75.6991Z" fill="#7AE7FF"/>
<path d="M731.41 2.6717L33.7928 2.52431L15.0511 19.1667L14.7796 90.3687L4.13961 99.8063L3.75599 183.845L10.6702 190.02L10.435 258.268L30.8833 276.533L736.934 276.682L750.472 264.674L750.614 225.66L746.201 221.718L746.547 144.159L750.058 141.045L750.512 19.9977L731.41 2.6717Z" fill="#171717"/>
<path d="M752.037 150.173L757.089 153.759L757.043 166.418L751.908 162.758L752.037 150.173Z" fill="#7AE7FF"/>
<path d="M752.02 167.916L757.072 171.517L757.027 184.176L751.891 180.5L752.02 167.916Z" fill="#7AE7FF"/>
<path d="M752.004 185.674L757.056 189.275L757.011 201.919L751.875 198.258L752.004 185.674Z" fill="#7AE7FF"/>
<path d="M751.988 203.431L757.041 207.017L756.995 219.676L751.859 216L751.988 203.431Z" fill="#7AE7FF"/>
<path d="M13.0082 221.173L18.0575 224.951L18.0092 238.287L12.8766 234.415L13.0082 221.173Z" fill="#7AE7FF"/>
<path d="M12.991 239.865L18.0402 243.659L17.992 256.98L12.8594 253.123L12.991 239.865Z" fill="#7AE7FF"/>
<path d="M732.394 1.83918L31.8817 1.52914L13.1579 18.1567L13.0156 90.3153L2.38579 99.7445L2.17384 180.817L9.10398 186.991L8.97639 257.607L29.4719 275.865L738.424 276.179L751.949 264.181L752.02 224.192L747.597 220.252L747.8 144.243L751.308 141.131L751.541 19.1587L732.394 1.83918Z" stroke="#7AE7FF" stroke-width="3" stroke-miterlimit="10"/>
</svg>
