<?xml version="1.0" encoding="utf-8"?>
<svg version="1.1" xmlns="http://www.w3.org/2000/svg" xmlns:xlink="http://www.w3.org/1999/xlink" width="84" height="80" viewBox="0 0 84 80">
    <path fill="#7AE7FF" fill-rule="evenodd" stroke="#7AE7FF" stroke-opacity=".302" d="M81.834 34.571H63.578l-14.37-32.87A1.166 1.166 0 0 0 48.14 1H35.86c-.463 0-.882.275-1.068.7l-14.37 32.871H2.166c-.644 0-1.166.524-1.166 1.17v8.517c0 .647.522 1.17 1.166 1.17h13.51L1.716 77.36c-.157.362-.123.78.093 1.11.215.33.582.53.976.53h10.533c.47 0 .893-.283 1.075-.717L42 12.765l27.607 65.518c.182.434.605.717 1.075.717h10.533c.394 0 .76-.2.976-.53.216-.33.25-.748.092-1.11L68.324 45.428h13.51c.644 0 1.166-.523 1.166-1.17v-8.517c0-.646-.522-1.17-1.166-1.17z"/>
</svg>
